<?xml version="1.0" encoding="UTF-8" standalone="no"?>
<svg
   id="Layer_1"
   viewBox="0 0 140 140"
   version="1.1"
   sodipodi:docname="tuos_logo.svg"
   width="140"
   height="140"
   inkscape:version="1.3.2 (091e20e, 2023-11-25, custom)"
   xmlns:inkscape="http://www.inkscape.org/namespaces/inkscape"
   xmlns:sodipodi="http://sodipodi.sourceforge.net/DTD/sodipodi-0.dtd"
   xmlns="http://www.w3.org/2000/svg"
   xmlns:svg="http://www.w3.org/2000/svg"
   xmlns:rdf="http://www.w3.org/1999/02/22-rdf-syntax-ns#"
   xmlns:cc="http://creativecommons.org/ns#"
   xmlns:dc="http://purl.org/dc/elements/1.1/">
  <metadata
     id="metadata117">
    <rdf:RDF>
      <cc:Work
         rdf:about="">
        <dc:format>image/svg+xml</dc:format>
        <dc:type
           rdf:resource="http://purl.org/dc/dcmitype/StillImage" />
      </cc:Work>
    </rdf:RDF>
  </metadata>
  <sodipodi:namedview
     pagecolor="#ffffff"
     bordercolor="#666666"
     borderopacity="1"
     objecttolerance="10"
     gridtolerance="10"
     guidetolerance="10"
     inkscape:pageopacity="0"
     inkscape:pageshadow="2"
     inkscape:window-width="1827"
     inkscape:window-height="1057"
     id="namedview115"
     showgrid="false"
     fit-margin-top="0"
     fit-margin-left="0"
     fit-margin-right="0"
     fit-margin-bottom="0"
     inkscape:zoom="2.4506114"
     inkscape:cx="55.700386"
     inkscape:cy="60.597123"
     inkscape:window-x="85"
     inkscape:window-y="-8"
     inkscape:window-maximized="1"
     inkscape:current-layer="Layer_1"
     inkscape:showpageshadow="2"
     inkscape:pagecheckerboard="0"
     inkscape:deskcolor="#d1d1d1" />
  <defs
     id="defs4">
    <style
       id="style2">.cls-1{fill:#fff;}.cls-2{fill:#409;}</style>
  </defs>
  <g
     id="g1"
     transform="translate(16.35,5.66)">
    <path
       class="cls-2"
       d="M 53.64,0 C 35.05,0 17.07,2.54 0,7.3 v 45.66 c 0,10.16 1.4,19.55 4.17,27.9 2.58,7.78 6.42,14.91 11.42,21.18 8.65,10.85 20.87,19.46 37.34,26.34 l 0.72,0.3 0.72,-0.3 c 16.47,-6.88 28.69,-15.5 37.34,-26.34 5,-6.27 8.84,-13.39 11.42,-21.18 2.77,-8.35 4.17,-17.74 4.17,-27.9 V 7.3 C 90.23,2.54 72.24,0 53.64,0 Z"
       id="path6"
       inkscape:export-xdpi="32.208759"
       inkscape:export-ydpi="32.208759" />
    <path
       class="cls-1"
       d="m 28.12,78.05 v -1.74 l -3.41,2.48 -1.14,-1.57 h -0.01 c -2.24,2.28 -4.22,4.81 -5.87,7.53 l -0.02,0.03 h 0.04 c 3.1,-0.74 6.12,-1.84 8.97,-3.27 h 0.02 c 0,0 -1.14,-1.58 -1.14,-1.58 l 2.59,-1.88 z"
       id="path8"
       inkscape:export-xdpi="32.208759"
       inkscape:export-ydpi="32.208759" />
    <polygon
       class="cls-1"
       points="84.12,35.63 84.65,32.27 78.25,37.97 77.91,40.14 70.37,45.62 72.76,45.62 78.74,41.28 80.91,41.62 88.3,37.3 84.94,36.77 87.37,35.01 86.54,33.87 "
       id="polygon10"
       inkscape:export-xdpi="32.208759"
       inkscape:export-ydpi="32.208759" />
    <path
       class="cls-1"
       d="m 53.65,82.33 c 0,0 0,0 0,0 -0.68,0 -1.35,-0.1 -1.99,-0.29 L 35.32,93.91 34.18,92.34 h -0.01 c -2.24,2.28 -4.22,4.81 -5.87,7.53 l -0.02,0.03 h 0.04 c 3.1,-0.74 6.12,-1.84 8.97,-3.27 h 0.02 c 0,0 -1.14,-1.58 -1.14,-1.58 L 53.68,82.33 Z"
       id="path12"
       inkscape:export-xdpi="32.208759"
       inkscape:export-ydpi="32.208759" />
    <polygon
       class="cls-1"
       points="94.72,50.75 95.25,47.39 88.86,53.09 88.51,55.26 79.17,62.05 79.17,63.79 89.34,56.4 91.51,56.74 98.91,52.42 95.55,51.89 97.97,50.13 97.14,48.99 "
       id="polygon14"
       inkscape:export-xdpi="32.208759"
       inkscape:export-ydpi="32.208759" />
    <path
       class="cls-1"
       d="m 42.41,79.08 h -2.39 l -10.01,7.27 -1.14,-1.57 h -0.01 c -2.24,2.28 -4.22,4.81 -5.87,7.53 l -0.02,0.03 h 0.04 c 3.1,-0.74 6.12,-1.84 8.97,-3.27 H 32 c 0,0 -1.14,-1.58 -1.14,-1.58 l 11.58,-8.41 z"
       id="path16"
       inkscape:export-xdpi="32.208759"
       inkscape:export-ydpi="32.208759" />
    <polygon
       class="cls-1"
       points="89.42,43.19 89.95,39.83 83.55,45.53 83.21,47.7 79.17,50.64 79.17,52.37 84.04,48.84 86.21,49.18 93.6,44.86 90.25,44.33 92.67,42.57 91.84,41.43 "
       id="polygon18"
       inkscape:export-xdpi="32.208759"
       inkscape:export-ydpi="32.208759" />
    <path
       class="cls-1"
       d="m 73.94,11.64 c 0,0 -0.29,-0.04 -0.73,-0.05 0,0 0,0 0,0 -1.03,-0.02 -2.92,0.14 -4.18,1.37 -0.47,0.46 -0.62,1.09 -0.62,1.69 0,0 0,0 0,0 0,0.05 0,0.11 0,0.16 0,0.03 0,0.07 0,0.1 0,0.02 0,0.03 0,0.05 0,0.05 0,0.1 0.01,0.14 0,0 0,0 0,0 0.01,0.11 0.03,0.23 0.05,0.33 -0.18,-0.2 -0.41,-0.36 -0.68,-0.48 -2.1,-0.87 -4.41,0.25 -4.41,0.25 0,0 0.54,2.62 2.93,3.31 0.58,0.17 1.15,0.08 1.64,-0.08 l -0.5,0.89 c -0.64,1.14 -1.93,1.75 -3.22,1.52 -1.65,-0.3 -2.75,-1.9 -2.45,-3.55 L 61.09,17.16 60.4,17.03 c -0.15,0.8 -0.6,1.5 -1.27,1.96 -0.67,0.46 -1.48,0.64 -2.28,0.49 -1.45,-0.27 -2.5,-1.53 -2.5,-3 v -1.9 c 0.41,0.45 0.99,0.88 1.74,0.88 2.28,0 3.98,-1.93 3.98,-1.93 0,0 -1.71,-1.93 -3.98,-1.93 -0.28,0 -0.53,0.06 -0.76,0.16 0.45,-0.43 0.81,-0.99 0.81,-1.66 0,-2.54 -2.49,-4.44 -2.49,-4.44 0,0 -2.49,1.9 -2.49,4.44 0,0.68 0.36,1.23 0.81,1.66 -0.23,-0.1 -0.48,-0.16 -0.76,-0.16 -2.28,0 -3.98,1.93 -3.98,1.93 0,0 1.71,1.93 3.98,1.93 0.75,0 1.33,-0.43 1.74,-0.88 v 1.9 c 0,1.47 -1.05,2.73 -2.5,3 -0.8,0.15 -1.61,-0.03 -2.28,-0.49 -0.67,-0.46 -1.12,-1.16 -1.27,-1.96 l -0.69,0.13 -0.69,0.13 c 0.3,1.65 -0.79,3.24 -2.45,3.55 -1.29,0.24 -2.58,-0.37 -3.22,-1.52 l -0.5,-0.89 c 0.48,0.16 1.06,0.25 1.64,0.08 2.39,-0.68 2.93,-3.31 2.93,-3.31 0,0 -2.31,-1.12 -4.41,-0.25 -0.27,0.11 -0.5,0.28 -0.68,0.48 0.02,-0.11 0.03,-0.22 0.05,-0.33 0,0 0,0 0,0 0,-0.05 0,-0.1 0.01,-0.14 0,-0.02 0,-0.03 0,-0.05 0,-0.03 0,-0.07 0,-0.1 0,-0.05 0,-0.11 0,-0.16 0,0 0,0 0,0 0,-0.61 -0.15,-1.23 -0.62,-1.69 -1.27,-1.24 -3.15,-1.39 -4.18,-1.37 0,0 0,0 0,0 -0.45,0 -0.73,0.05 -0.73,0.05 0,0 -0.06,0.5 -0.02,1.2 1.25,1.34 2.37,2.76 3.36,4.26 1.37,2.07 2.5,4.29 3.36,6.61 l 2.71,1.56 -1.48,2.57 c 0.24,1.06 0.42,2.15 0.56,3.24 v 0 c 0,0 0.04,0 0.06,0.01 v 0 c 0,0 0,0 0,0 3.83,0.78 7.75,1.18 11.73,1.18 v 0 c 0,0 0.01,0 0.02,0 0.01,0 0.01,0 0.02,0 v 0 c 3.98,0 7.9,-0.4 11.73,-1.18 0,0 0,0 0,0 v 0 c 0,0 0.04,0 0.06,-0.01 v 0 c 0.13,-1.09 0.32,-2.18 0.56,-3.24 l -1.48,-2.57 2.71,-1.56 c 0.86,-2.32 1.98,-4.54 3.36,-6.61 0.99,-1.5 2.12,-2.92 3.36,-4.26 0.04,-0.71 -0.02,-1.2 -0.02,-1.2 z M 60.4,22.53 c 0.97,0 1.76,0.79 1.76,1.76 0,0.97 -0.79,1.76 -1.76,1.76 -0.97,0 -1.76,-0.79 -1.76,-1.76 0,-0.97 0.79,-1.76 1.76,-1.76 z m -6.76,-1.83 2.49,2.49 -2.49,2.49 -2.49,-2.49 z m -6.77,1.83 c 0.97,0 1.76,0.79 1.76,1.76 0,0.97 -0.79,1.76 -1.76,1.76 -0.97,0 -1.76,-0.79 -1.76,-1.76 0,-0.97 0.79,-1.76 1.76,-1.76 z m 17.31,7.38 c -3.45,0.64 -6.97,0.97 -10.53,0.97 -3.56,0 -7.08,-0.32 -10.53,-0.96 -0.03,-0.2 -0.06,-0.39 -0.09,-0.58 3.48,-0.65 7.02,-0.98 10.62,-0.98 3.6,0 7.15,0.33 10.63,0.98 -0.03,0.19 -0.06,0.39 -0.09,0.58 z"
       id="path20"
       inkscape:export-xdpi="32.208759"
       inkscape:export-ydpi="32.208759" />
    <polygon
       class="cls-1"
       points="78.82,28.07 81.24,26.31 82.07,27.45 79.64,29.21 83,29.74 75.61,34.06 73.43,33.72 53.65,48.1 33.86,33.72 31.69,34.06 24.29,29.74 27.65,29.21 25.23,27.45 26.05,26.31 28.48,28.07 27.95,24.71 34.34,30.41 34.69,32.58 53.65,46.36 72.61,32.58 72.95,30.41 79.35,24.71 "
       id="polygon22"
       inkscape:export-xdpi="32.208759"
       inkscape:export-ydpi="32.208759" />
    <path
       class="cls-1"
       d="m 75.63,49.61 0.03,25.95 H 57.23 L 57.1,76.1 c -0.39,1.6 -1.8,2.71 -3.45,2.71 C 52,78.81 50.59,77.7 50.2,76.1 L 50.07,75.56 H 31.64 L 31.67,49.61 H 30.24 V 76.97 H 49 c 0.71,1.94 2.55,3.25 4.65,3.25 2.1,0 3.95,-1.31 4.65,-3.25 H 77.06 V 49.61 Z"
       id="path24"
       inkscape:export-xdpi="32.208759"
       inkscape:export-ydpi="32.208759" />
    <path
       class="cls-1"
       d="M 89.62,84.75 C 87.97,82.03 85.99,79.5 83.75,77.23 h -0.01 c 0,0 -1.14,1.56 -1.14,1.56 l -3.41,-2.48 v 1.74 l 2.59,1.88 -1.14,1.57 h 0.02 c 2.85,1.44 5.87,2.54 8.97,3.27 h 0.04 c 0,0 -0.02,-0.02 -0.02,-0.02 z"
       id="path26"
       inkscape:export-xdpi="32.208759"
       inkscape:export-ydpi="32.208759" />
    <polygon
       class="cls-1"
       points="29.04,37.97 22.64,32.27 23.18,35.63 20.75,33.87 19.93,35.01 22.35,36.77 18.99,37.3 26.39,41.62 28.56,41.28 34.53,45.62 36.93,45.62 29.38,40.14 "
       id="polygon28"
       inkscape:export-xdpi="32.208759"
       inkscape:export-ydpi="32.208759" />
    <polygon
       class="cls-1"
       points="17.34,39.83 17.88,43.19 15.45,41.43 14.63,42.57 17.05,44.33 13.69,44.86 21.08,49.18 23.26,48.84 28.12,52.37 28.12,50.64 24.08,47.7 23.74,45.53 "
       id="polygon30"
       inkscape:export-xdpi="32.208759"
       inkscape:export-ydpi="32.208759" />
    <path
       class="cls-1"
       d="m 84.31,92.31 c -1.65,-2.72 -3.63,-5.25 -5.87,-7.52 h -0.01 c 0,0 -1.14,1.56 -1.14,1.56 L 67.28,79.08 h -2.39 l 11.58,8.41 -1.14,1.57 h 0.02 c 2.85,1.44 5.87,2.54 8.97,3.27 h 0.04 c 0,0 -0.02,-0.02 -0.02,-0.02 z"
       id="path32"
       inkscape:export-xdpi="32.208759"
       inkscape:export-ydpi="32.208759" />
    <polygon
       class="cls-1"
       points="12.04,47.39 12.57,50.75 10.15,48.99 9.32,50.13 11.75,51.89 8.39,52.42 15.78,56.74 17.96,56.4 28.12,63.79 28.12,62.05 18.78,55.26 18.44,53.09 "
       id="polygon34"
       inkscape:export-xdpi="32.208759"
       inkscape:export-ydpi="32.208759" />
    <path
       class="cls-1"
       d="m 73.14,92.35 h -0.01 c 0,0 -1.14,1.56 -1.14,1.56 L 55.65,82.04 c -0.64,0.19 -1.32,0.29 -1.99,0.29 0,0 0,0 0,0 l 17.51,12.72 -1.14,1.57 h 0.02 c 2.85,1.44 5.87,2.54 8.97,3.27 h 0.04 c 0,0 -0.02,-0.02 -0.02,-0.02 -1.65,-2.72 -3.63,-5.25 -5.87,-7.52 z"
       id="path36"
       inkscape:export-xdpi="32.208759"
       inkscape:export-ydpi="32.208759" />
    <path
       class="cls-1"
       d="M 28.12,66.64 V 64.9 l -8.71,6.33 -1.14,-1.57 h -0.01 c -2.24,2.28 -4.22,4.81 -5.87,7.53 l -0.02,0.03 h 0.04 c 3.1,-0.74 6.12,-1.84 8.97,-3.27 h 0.02 c 0,0 -1.14,-1.58 -1.14,-1.58 l 7.89,-5.73 z"
       id="path38"
       inkscape:export-xdpi="32.208759"
       inkscape:export-ydpi="32.208759" />
    <path
       class="cls-1"
       d="m 94.92,77.2 c -1.65,-2.72 -3.63,-5.25 -5.87,-7.52 h -0.01 c 0,0 -1.14,1.56 -1.14,1.56 l -8.71,-6.33 v 1.74 l 7.89,5.73 -1.14,1.57 h 0.02 c 2.85,1.44 5.87,2.54 8.97,3.27 h 0.04 c 0,0 -0.02,-0.02 -0.02,-0.02 z"
       id="path40"
       inkscape:export-xdpi="32.208759"
       inkscape:export-ydpi="32.208759" />
    <path
       class="cls-1"
       d="m 63.15,111.09 c 0.22,-0.68 0.88,-2.7 1.1,-3.38 0.39,-1.21 -0.27,-2.52 -1.48,-2.91 l -3.19,-0.58 2.24,-2.35 c 0.75,-1.03 0.52,-2.48 -0.51,-3.23 -0.58,-0.42 -2.3,-1.67 -2.88,-2.09 -0.41,-0.3 -0.89,-0.44 -1.36,-0.44 -0.71,0 -1.42,0.33 -1.87,0.95 l -1.54,2.86 -1.54,-2.86 c -0.45,-0.62 -1.16,-0.95 -1.87,-0.95 -0.47,0 -0.95,0.14 -1.36,0.44 -0.58,0.42 -2.3,1.67 -2.88,2.09 -1.03,0.75 -1.26,2.2 -0.51,3.23 l 2.24,2.35 -3.19,0.58 c -1.21,0.39 -1.88,1.7 -1.48,2.91 0.22,0.68 0.88,2.7 1.1,3.38 0.32,0.98 1.22,1.6 2.2,1.6 0.24,0 0.48,-0.04 0.71,-0.11 l 2.92,-1.41 -0.43,3.22 c 0,1.28 1.03,2.31 2.31,2.31 h 3.55 c 1.28,0 2.31,-1.03 2.31,-2.31 l -0.43,-3.22 2.92,1.41 c 0.24,0.08 0.48,0.11 0.71,0.11 0.97,0 1.88,-0.62 2.2,-1.6 z m -7.23,-2.18 c -0.08,0 -0.17,0 -0.25,0 -0.4,1.58 -2.01,3.17 -2.01,3.17 0,0 -1.61,-1.58 -2.01,-3.17 -0.08,0 -0.17,0 -0.25,0 -1.58,0 -3.38,-0.94 -3.38,-0.94 0,0 1.01,-2.02 2.39,-2.89 -0.61,-1.52 -0.24,-3.74 -0.24,-3.74 0,0 2.23,0.34 3.49,1.38 1.25,-1.05 3.49,-1.38 3.49,-1.38 0,0 0.37,2.23 -0.24,3.74 1.38,0.87 2.39,2.89 2.39,2.89 0,0 -1.81,0.94 -3.38,0.94 z"
       id="path42"
       inkscape:export-xdpi="32.208759"
       inkscape:export-ydpi="32.208759" />
    <circle
       class="cls-1"
       cx="53.66"
       cy="106.14"
       r="1.52"
       id="circle44"
       inkscape:export-xdpi="32.208759"
       inkscape:export-ydpi="32.208759" />
    <path
       class="cls-1"
       d="m 44.07,103.31 0.1,-0.03 0.1,-0.02 0.34,-0.06 -0.24,-0.25 -0.07,-0.08 -0.06,-0.09 c -0.36,-0.5 -0.59,-1.06 -0.69,-1.65 -1.12,0.28 -2.04,0.75 -2.09,0.78 l -0.3,0.16 0.15,0.31 c 0.03,0.07 0.5,0.99 1.24,1.86 0.42,-0.41 0.93,-0.74 1.53,-0.93 z"
       id="path46"
       inkscape:export-xdpi="32.208759"
       inkscape:export-ydpi="32.208759" />
    <path
       class="cls-1"
       d="m 53.38,96.14 0.06,0.09 0.05,0.09 0.16,0.3 0.16,-0.3 0.05,-0.09 0.06,-0.09 c 0.36,-0.49 0.83,-0.89 1.36,-1.16 -0.61,-0.97 -1.34,-1.7 -1.39,-1.75 l -0.24,-0.24 -0.24,0.24 c -0.05,0.05 -0.78,0.78 -1.39,1.75 0.53,0.27 1,0.67 1.36,1.16 z"
       id="path48"
       inkscape:export-xdpi="32.208759"
       inkscape:export-ydpi="32.208759" />
    <path
       class="cls-1"
       d="m 65.86,101.92 c -0.05,-0.03 -0.98,-0.5 -2.1,-0.78 -0.09,0.58 -0.32,1.15 -0.69,1.65 l -0.06,0.09 -0.07,0.08 -0.24,0.25 0.34,0.06 0.1,0.02 0.1,0.03 c 0.6,0.19 1.11,0.52 1.53,0.93 0.74,-0.88 1.2,-1.8 1.24,-1.86 l 0.15,-0.31 z"
       id="path50"
       inkscape:export-xdpi="32.208759"
       inkscape:export-ydpi="32.208759" />
    <path
       class="cls-1"
       d="m 60.95,114.25 c -0.41,0 -0.81,-0.06 -1.2,-0.19 l -0.1,-0.03 -0.09,-0.05 -0.31,-0.15 0.05,0.34 v 0.1 c 0,0 0.01,0.11 0.01,0.11 0,0.63 -0.15,1.22 -0.41,1.74 1.06,0.43 2.08,0.59 2.15,0.6 l 0.34,0.05 0.06,-0.34 c 0.01,-0.07 0.18,-1.09 0.09,-2.23 -0.19,0.03 -0.39,0.05 -0.59,0.05 z"
       id="path52"
       inkscape:export-xdpi="32.208759"
       inkscape:export-ydpi="32.208759" />
    <path
       class="cls-1"
       d="m 48,114.38 v -0.21 c 0,0 0.06,-0.34 0.06,-0.34 l -0.31,0.15 -0.09,0.05 -0.1,0.03 c -0.39,0.13 -0.79,0.19 -1.2,0.19 -0.2,0 -0.39,-0.02 -0.59,-0.05 -0.08,1.14 0.08,2.16 0.09,2.23 l 0.06,0.34 0.34,-0.05 c 0.07,-0.01 1.09,-0.17 2.15,-0.6 C 48.15,115.6 48,115 48,114.38 Z"
       id="path54"
       inkscape:export-xdpi="32.208759"
       inkscape:export-ydpi="32.208759" />
    <path
       class="cls-1"
       d="m 50.19,59.21 c -0.3,0 -0.49,0.38 -0.52,1.08 h 0.57 c 0.31,0 0.39,-0.09 0.39,-0.41 0,-0.41 -0.17,-0.67 -0.45,-0.67 z"
       id="path56"
       inkscape:export-xdpi="32.208759"
       inkscape:export-ydpi="32.208759" />
    <path
       class="cls-1"
       d="m 36.34,58.09 h -0.2 c -0.01,0.59 -0.01,1.18 -0.01,1.79 v 0.24 c 0,0.63 0,1.23 0.01,1.82 h 0.19 c 0.82,0 1.3,-0.72 1.3,-1.93 0,-1.21 -0.47,-1.93 -1.3,-1.93 z"
       id="path58"
       inkscape:export-xdpi="32.208759"
       inkscape:export-ydpi="32.208759" />
    <path
       class="cls-1"
       d="M 48.34,47.03 H 33.07 V 72.8 h 15.27 c 1.85,0 3.5,0.84 4.61,2.15 V 51.64 c 0,-2.54 -2.07,-4.61 -4.61,-4.61 z m -8.02,9.99 c 0.38,0 0.67,0.27 0.67,0.64 0,0.37 -0.29,0.63 -0.67,0.63 -0.38,0 -0.67,-0.27 -0.67,-0.63 0,-0.36 0.29,-0.64 0.67,-0.64 z m -3.99,5.47 h -2.1 V 62 l 0.55,-0.06 c 0.01,-0.58 0.01,-1.17 0.01,-1.79 V 59.9 c 0,-0.58 0,-1.18 -0.01,-1.77 l -0.55,-0.06 v -0.49 h 2.23 c 1.57,0 2.55,0.94 2.55,2.45 0,1.51 -1.03,2.47 -2.68,2.47 z m 5.01,0 h -2.05 v -0.44 l 0.4,-0.09 c 0,-0.34 0,-0.78 0,-1.06 v -0.35 c 0,-0.39 0,-0.61 -0.02,-0.88 L 39.21,59.6 v -0.37 l 1.6,-0.51 0.17,0.11 -0.02,1.09 v 0.97 c 0,0.29 0,0.73 0,1.08 l 0.37,0.07 v 0.44 z m 1.51,0.11 c -0.48,0 -0.91,-0.11 -1.3,-0.34 l -0.03,-0.02 0.02,-0.98 h 0.68 L 42.35,62 c 0.17,0.06 0.33,0.09 0.5,0.09 0.4,0 0.6,-0.13 0.6,-0.38 0,-0.19 -0.1,-0.33 -0.58,-0.47 l -0.4,-0.12 c -0.6,-0.18 -0.92,-0.57 -0.92,-1.14 0,-0.75 0.64,-1.25 1.58,-1.25 0.4,0 0.75,0.09 1.18,0.31 l 0.03,0.02 -0.06,0.88 H 43.6 L 43.45,59.3 c -0.1,-0.03 -0.21,-0.05 -0.36,-0.05 -0.15,0 -0.5,0.03 -0.5,0.36 0,0.14 0.04,0.28 0.58,0.44 l 0.36,0.1 c 0.69,0.2 1.01,0.58 1.01,1.19 0,0.79 -0.64,1.27 -1.71,1.27 z m 5.34,-2.73 c -0.09,0.29 -0.26,0.42 -0.55,0.42 -0.21,0 -0.57,-0.1 -0.61,-0.74 l -0.05,-0.32 c 0,0 -0.06,0 -0.09,0 -0.38,0 -0.83,0.35 -0.83,1.33 0,0.79 0.36,1.26 0.97,1.26 0.3,0 0.55,-0.12 0.78,-0.39 l 0.03,-0.04 0.33,0.29 -0.02,0.04 c -0.29,0.59 -0.82,0.91 -1.55,0.91 -1.3,0 -1.88,-0.96 -1.88,-1.92 0,-1.15 0.83,-1.95 2.03,-1.95 0.77,0 1.36,0.47 1.42,1.12 v 0 c 0,0 0,0.02 0,0.02 z m 2.42,1.93 c 0.33,0 0.6,-0.12 0.85,-0.38 l 0.04,-0.04 0.32,0.3 -0.02,0.04 c -0.3,0.59 -0.84,0.88 -1.58,0.88 -1.14,0 -1.88,-0.76 -1.88,-1.93 0,-1.27 0.97,-1.94 1.93,-1.94 0.96,0 1.57,0.63 1.57,1.6 0,0.15 -0.01,0.27 -0.05,0.4 v 0.04 h -2.11 c 0.06,0.65 0.39,1.02 0.93,1.02 z"
       id="path60"
       inkscape:export-xdpi="32.208759"
       inkscape:export-ydpi="32.208759" />
    <path
       class="cls-1"
       d="m 58.43,58.09 h -0.2 c -0.01,0.59 -0.01,1.18 -0.01,1.79 v 0.24 c 0,0.63 0,1.23 0.01,1.82 h 0.19 c 0.82,0 1.3,-0.72 1.3,-1.93 0,-1.21 -0.47,-1.93 -1.3,-1.93 z"
       id="path62"
       inkscape:export-xdpi="32.208759"
       inkscape:export-ydpi="32.208759" />
    <path
       class="cls-1"
       d="m 63.27,59.21 c -0.39,0 -0.57,0.46 -0.57,1.45 0,1.29 0.33,1.44 0.57,1.44 0.38,0 0.56,-0.46 0.56,-1.44 0,-0.98 -0.18,-1.45 -0.56,-1.45 z"
       id="path64"
       inkscape:export-xdpi="32.208759"
       inkscape:export-ydpi="32.208759" />
    <path
       class="cls-1"
       d="m 58.96,47.03 c -2.54,0 -4.61,2.07 -4.61,4.61 v 23.31 c 1.1,-1.31 2.76,-2.15 4.61,-2.15 H 74.23 V 47.03 Z m -0.54,15.45 h -2.1 v -0.49 l 0.55,-0.06 c 0.01,-0.58 0.01,-1.17 0.01,-1.79 v -0.25 c 0,-0.58 0,-1.18 -0.01,-1.77 l -0.55,-0.06 v -0.49 h 2.23 c 1.57,0 2.55,0.94 2.55,2.45 0,1.51 -1.03,2.47 -2.68,2.47 z m 4.85,0.11 c -1.16,0 -1.91,-0.77 -1.91,-1.95 0,-1.11 0.8,-1.92 1.91,-1.92 1.11,0 1.91,0.79 1.91,1.92 0,1.13 -0.75,1.95 -1.91,1.95 z m 5.58,-2.73 c -0.09,0.29 -0.26,0.42 -0.55,0.42 -0.21,0 -0.57,-0.1 -0.61,-0.74 l -0.05,-0.32 c 0,0 -0.06,0 -0.09,0 -0.38,0 -0.83,0.35 -0.83,1.33 0,0.79 0.36,1.26 0.97,1.26 0.3,0 0.55,-0.12 0.78,-0.39 l 0.03,-0.04 0.32,0.29 -0.02,0.04 c -0.29,0.59 -0.82,0.91 -1.55,0.91 -1.3,0 -1.88,-0.96 -1.88,-1.92 0,-1.15 0.83,-1.95 2.03,-1.95 0.77,0 1.37,0.47 1.42,1.12 v 0 c 0,0 0,0.02 0,0.02 z m 2.42,1.93 c 0.33,0 0.6,-0.12 0.85,-0.38 l 0.04,-0.04 0.32,0.3 -0.02,0.04 c -0.3,0.59 -0.84,0.88 -1.58,0.88 -1.14,0 -1.88,-0.76 -1.88,-1.93 0,-1.27 0.97,-1.94 1.93,-1.94 0.96,0 1.57,0.63 1.57,1.6 0,0.15 -0.01,0.27 -0.05,0.4 v 0.04 h -2.11 c 0.06,0.65 0.39,1.02 0.93,1.02 z"
       id="path66"
       inkscape:export-xdpi="32.208759"
       inkscape:export-ydpi="32.208759" />
    <path
       class="cls-1"
       d="m 70.85,59.21 c -0.3,0 -0.49,0.38 -0.52,1.08 h 0.57 c 0.31,0 0.39,-0.09 0.39,-0.41 0,-0.41 -0.17,-0.67 -0.45,-0.67 z"
       id="path68"
       inkscape:export-xdpi="32.208759"
       inkscape:export-ydpi="32.208759" />
  </g>
</svg>
